<svg width="118" height="213" viewBox="0 0 118 213" fill="none" xmlns="http://www.w3.org/2000/svg">
<g id="left-hand">
<path id="left-meat" d="M75.0893 63.4168L87.1631 17.2573L84.3514 136.048L90.538 147.806L106.68 124.954L110.228 90.6766L117.037 130.423L106.68 166.325L84.3514 198.09L45.6357 212.239L13.3195 198.09L3.49364 177.957L0 152.427V101.635L20.0128 50.8429L9.75829 99.3187L13.3195 115.945L17.0315 125.771L23.8169 79.2997L57.392 22.8825L35.0637 75.9908V109.576L39.0851 115.945L50.7762 63.4168L79.7203 0.0508556L63.3462 67.0567V99.3187L69.4658 109.576L75.0893 63.4168Z" fill="#363B4E"/>
<path id="left-middle-nail" fill-rule="evenodd" clip-rule="evenodd" d="M56.2141 51.4451C60.1454 51.0151 64.0201 50.159 67.7693 48.8908L79.7203 0L56.2141 51.4451Z" fill="#34663F"/>
<path id="left-ring-nail" fill-rule="evenodd" clip-rule="evenodd" d="M41.9026 59.6548C39.7184 59.8538 37.5251 59.9285 35.3334 59.8787L57.392 22.8245L41.9026 59.6548Z" fill="#233B6C"/>
<path id="left-little-nail" fill-rule="evenodd" clip-rule="evenodd" d="M11.8192 89.4975C9.07978 91.3666 6.11135 92.8651 2.99304 93.9586L20.0128 50.7762L11.8192 89.4975Z" fill="#67253A"/>
<path id="left-index-nail" fill-rule="evenodd" clip-rule="evenodd" d="M87.1631 17.4094L75.0893 63.5019L73.5218 76.3493C77.6188 76.8127 81.7508 76.6499 85.7772 75.877L87.1631 17.4094Z" fill="#673D6C"/>
<path id="left-thumb-nail" fill-rule="evenodd" clip-rule="evenodd" d="M116.937 129.827C112.965 129.317 109.065 128.322 105.327 126.863L106.68 124.95L110.228 90.7221L116.937 129.827Z" fill="#67603C"/>
</g>
</svg>
