<svg width="118" height="213" viewBox="0 0 118 213" fill="none" xmlns="http://www.w3.org/2000/svg">
<g id="right-hand">
<path id="right-meat" d="M41.9477 63.4168L29.8739 17.2573L32.6856 136.048L26.4989 147.806L10.3573 124.954L6.80876 90.6766L0 130.423L10.3573 166.325L32.6856 198.09L71.4013 212.239L103.717 198.09L113.543 177.957L117.037 152.427V101.635L97.0242 50.8429L107.279 99.3187L103.717 115.945L100.005 125.771L93.2201 79.2997L59.645 22.8825L81.9733 75.9908V109.576L77.9519 115.945L66.2608 63.4168L37.3167 0.0508556L53.6907 67.0567V99.3187L47.5711 109.576L41.9477 63.4168Z" fill="#363B4E"/>
<path id="right-middle-nail" fill-rule="evenodd" clip-rule="evenodd" d="M60.8229 51.4451C56.8915 51.0151 53.0169 50.159 49.2677 48.8908L37.3167 0L60.8229 51.4451Z" fill="#34663F"/>
<path id="right-ring-nail" fill-rule="evenodd" clip-rule="evenodd" d="M75.1344 59.6548C77.3186 59.8538 79.5119 59.9285 81.7036 59.8787L59.645 22.8245L75.1344 59.6548Z" fill="#233B6C"/>
<path id="right-little-nail" fill-rule="evenodd" clip-rule="evenodd" d="M105.218 89.4975C107.957 91.3666 110.926 92.8651 114.044 93.9586L97.0242 50.7762L105.218 89.4975Z" fill="#67253A"/>
<path id="right-index-nail" fill-rule="evenodd" clip-rule="evenodd" d="M29.8739 17.4094L41.9477 63.5019L43.5152 76.3493C39.4182 76.8127 35.2862 76.6499 31.2598 75.877L29.8739 17.4094Z" fill="#673D6C"/>
<path id="righit-thumb-nail" fill-rule="evenodd" clip-rule="evenodd" d="M0.100037 129.827C4.0724 129.317 7.97244 128.322 11.7105 126.863L10.3573 124.95L6.80875 90.7221L0.100037 129.827Z" fill="#67603C"/>
</g>
</svg>
